<?xml version="1.0" encoding="UTF-8"?>
<svg xmlns="http://www.w3.org/2000/svg" viewBox="0 0 841.89 1190.55">
  <defs>
    <style>
      .cls-1 {
        fill:#ffffff;
      }

      .cls-2 {
        fill: none;
      }
    </style>
  </defs>
  <rect class="cls-2" width="841.89" height="1190.55"/>
  <g id="Capa_1" data-name="Capa 1">
    <g>
      <path class="cls-1" d="M108.35,133.81h23.28c12.37,31.67,24.59,63.13,36.65,94.38,12.06,31.25,24.27,62.71,36.65,94.38l77.07-188.75h9.75l-89.03,218.01h-9.75c-14.27-36.49-28.37-72.83-42.31-109.01-13.95-36.18-28.05-72.51-42.31-109.01Z"/>
      <path class="cls-1" d="M458.4,155c1.64,1.22,1.88,1.4,4.12,3.67,10.16,10.27,18.25,22.28,24.22,36.02,5.98,13.74,8.97,28.36,8.97,43.89s-2.99,30.46-8.97,44.2c-5.97,13.74-14.05,25.69-24.22,35.86-2.29,2.29-1.97,1.84-4.22,3.63-3.5-2.59-7.06-5.18-10.21-8.25.93-1.02.06-.07,1.37-1.52,8.59-9.43,15.36-20.5,20.29-33.19,4.93-12.69,7.39-26.27,7.39-40.74s-2.46-28-7.39-40.58c-4.93-12.58-11.7-23.61-20.29-33.04-1.31-1.44.42.25-.96-1.1,2.64-3.11,6.34-6.24,9.89-8.85M382.46,125.32c15.73,0,30.47,2.99,44.2,8.97,6.67,2.9,9.04,4.07,14.87,7.99-3.53,2.37-6.59,5.13-9.59,7.96-4.98-3.66-6.97-4.92-12.67-7.61-11.53-5.45-23.8-8.18-36.81-8.18s-25.27,2.73-36.81,8.18c-11.53,5.45-21.6,12.9-30.2,22.33-8.6,9.44-15.36,20.45-20.29,33.04-4.93,12.58-7.39,26.11-7.39,40.58s2.47,28.05,7.39,40.74c4.93,12.69,11.69,23.75,20.29,33.19,8.6,9.44,18.67,16.88,30.2,22.34,11.54,5.45,23.81,8.18,36.81,8.18s25.28-2.74,36.81-8.18c5.74-2.71,7.65-3.92,12.67-7.62,3.17,2.67,6.17,5.35,9.65,7.67-5.83,3.89-8.27,5.09-14.93,7.98-13.73,5.96-28.47,8.97-44.2,8.97s-30.46-2.99-44.2-8.97c-13.74-5.98-25.69-14.05-35.86-24.23-10.17-10.17-18.24-22.13-24.22-35.86-5.98-13.74-8.97-28.47-8.97-44.2s2.99-30.15,8.97-43.89c5.98-13.74,14.05-25.75,24.22-36.02,10.17-10.28,22.13-18.4,35.86-24.38,13.74-5.97,28.47-8.97,44.2-8.97Z"/>
      <path class="cls-1" d="M715.63,168.1c-.42-1.89-1.57-4.3-3.46-7.24-1.89-2.93-4.35-5.71-7.39-8.34-3.04-2.62-6.77-4.93-11.17-6.92-4.4-1.99-9.33-2.99-14.79-2.99s-10.28.94-14.47,2.83c-4.2,1.89-7.71,4.3-10.54,7.24-2.83,2.94-4.98,6.13-6.45,9.6-1.47,3.46-2.2,6.76-2.2,9.91s.47,6.34,1.41,9.59c.94,3.25,3.2,6.92,6.77,11.01,3.56,4.09,8.7,8.81,15.42,14.16,6.71,5.35,15.93,11.69,27.68,19.03,11.53,6.72,20.55,14.47,27.06,23.28,6.5,8.81,10.85,17.88,13.05,27.21,2.2,9.33,2.36,18.56.47,27.68s-5.56,17.25-11.01,24.38c-5.46,7.13-12.48,12.85-21.08,17.14-8.6,4.3-18.46,6.34-29.57,6.13-4.82,0-10.17-.79-16.04-2.36-5.87-1.57-11.8-4.25-17.78-8.02s-11.64-8.7-16.99-14.78c-5.35-6.08-9.81-13.53-13.37-22.34h9.44c0,1.05,1.21,3.62,3.62,7.71,2.41,4.09,5.92,8.39,10.54,12.9,4.61,4.51,10.22,8.6,16.83,12.27,6.61,3.67,14.1,5.61,22.49,5.82,11.11.42,20.4-2.25,27.84-8.02,7.44-5.77,12.43-13.05,14.94-21.86s2.36-18.3-.47-28.47c-2.83-10.17-8.86-19.35-18.09-27.53-6.92-6.29-13.9-11.64-20.92-16.04-7.03-4.4-13.68-8.81-19.98-13.21s-11.95-9.17-16.99-14.31c-5.03-5.14-8.81-11.48-11.33-19.03-2.52-7.13-3.1-14.21-1.73-21.23,1.36-7.02,4.14-13.37,8.34-19.03,4.19-5.66,9.44-10.33,15.73-14,6.29-3.67,13.1-5.82,20.45-6.45,4.61-.21,9.28.05,14,.79,4.72.74,9.17,2.15,13.37,4.25,4.19,2.1,8.02,4.77,11.48,8.02,3.46,3.25,6.24,7.19,8.34,11.8l.31,9.44h-3.78Z"/>
      <path class="cls-1" d="M508.35,134.44c-13,0-25.27,2.73-36.81,8.18-11.53,5.45-21.6,12.9-30.2,22.33-8.6,9.44-15.36,20.45-20.29,33.04-4.93,12.58-7.39,26.11-7.39,40.58s2.47,28.05,7.39,40.74c4.93,12.69,11.69,23.75,20.29,33.19,8.6,9.44,18.67,16.88,30.2,22.34,11.54,5.45,23.81,8.18,36.81,8.18s25.27-2.73,36.81-8.18c11.54-5.45,21.6-12.9,30.2-22.34,8.6-9.44,15.36-20.5,20.29-33.19,4.93-12.69,7.39-26.27,7.39-40.74s-2.46-28-7.39-40.58c-4.93-12.58-11.69-23.6-20.29-33.04-8.6-9.44-18.66-16.88-30.2-22.33-11.53-5.45-23.8-8.18-36.81-8.18M508.35,125.32c15.73,0,30.46,2.99,44.2,8.97,13.74,5.98,25.69,14.1,35.86,24.38,10.17,10.28,18.25,22.28,24.22,36.02,5.98,13.74,8.97,28.36,8.97,43.89s-2.99,30.46-8.97,44.2c-5.97,13.74-14.05,25.69-24.22,35.86-10.17,10.17-22.13,18.25-35.86,24.23-13.74,5.97-28.47,8.97-44.2,8.97s-30.46-2.99-44.2-8.97c-13.74-5.98-25.69-14.05-35.86-24.23-10.17-10.17-18.24-22.13-24.22-35.86-5.98-13.74-8.97-28.47-8.97-44.2s2.99-30.15,8.97-43.89c5.98-13.74,14.05-25.75,24.22-36.02,10.17-10.28,22.13-18.4,35.86-24.38,13.74-5.97,28.47-8.97,44.2-8.97Z"/>
    </g>
    <g>
      <path class="cls-1" d="M212.12,389.09v29.48h-3.19v-29.48h-3.59v-3.03h3.59v-11.63h3.19v11.63h5.66v3.03h-5.66Z"/>
      <path class="cls-1" d="M227.35,386.07v19.6c0,2.31.08,5.74,2.07,8.13,1.99,2.39,4.94,2.63,6.45,2.63s4.46-.24,6.45-2.63c1.99-2.39,2.07-5.82,2.07-8.13v-19.6h3.19v20.48c0,2.63-.24,6.06-2.47,8.92-2.47,3.19-6.37,3.98-9.24,3.98s-6.77-.8-9.24-3.98c-2.23-2.87-2.47-6.29-2.47-8.92v-20.48h3.19Z"/>
      <path class="cls-1" d="M277.63,386.07h3.19v4.06c2.47-4.22,6.22-4.78,8.45-4.78,6.38,0,8.45,4.22,9.08,5.9,1.83-3.9,5.34-5.9,9.64-5.9,3.59,0,5.9,1.27,7.33,2.71,2.63,2.63,2.79,6.22,2.79,8.84v21.67h-3.19v-21.67c0-2.15-.16-4.86-1.91-6.69-1.43-1.51-3.35-1.83-4.86-1.83-8.61,0-8.69,8.61-8.69,10.6v19.6h-3.19v-20.88c0-2.07-.16-9.32-7.17-9.32-5.66,0-8.29,4.94-8.29,11.4v18.8h-3.19v-32.51Z"/>
      <path class="cls-1" d="M330.87,402.72c0,8.29,6.05,13.7,12.91,13.7,5.26,0,9.25-3.11,11.32-7.41l2.71,1.59c-1.91,3.67-6.22,8.84-14.26,8.84-10.12,0-16.02-7.49-16.02-16.97,0-11.32,7.81-17.13,15.78-17.13,8.76,0,15.38,7.01,15.38,17.37h-27.81ZM355.34,399.69c-.8-6.45-5.58-11.32-12.03-11.32s-11.32,5.02-12.19,11.32h24.22Z"/>
      <path class="cls-1" d="M366.81,375.23c0-1.75,1.27-2.95,2.87-2.95s2.87,1.19,2.87,2.95-1.27,2.95-2.87,2.95-2.87-1.19-2.87-2.95ZM371.28,386.07v50.84h-3.19v-50.84h3.19Z"/>
      <path class="cls-1" d="M414.79,402.4c0,9.64-7.41,17.05-17.05,17.05s-17.05-7.41-17.05-17.05,7.41-17.05,17.05-17.05,17.05,7.41,17.05,17.05ZM411.44,402.4c0-7.89-5.9-14.02-13.7-14.02s-13.7,6.14-13.7,14.02,5.9,14.02,13.7,14.02,13.7-6.13,13.7-14.02Z"/>
      <path class="cls-1" d="M424.2,386.07h3.19v4.22c1.19-2.79,3.66-4.94,7.17-4.94.88,0,2.23.16,3.43.8l-1.59,2.87c-.32-.24-.96-.64-2.39-.64-6.54,0-6.61,8.69-6.61,12.75v17.45h-3.19v-32.51Z"/>
      <path class="cls-1" d="M461.89,386.07l11.47,27.01,11.32-27.01h3.51l-14.82,34.5-14.98-34.5h3.51Z"/>
      <path class="cls-1" d="M495.84,402.72c0,8.29,6.06,13.7,12.91,13.7,5.26,0,9.24-3.11,11.32-7.41l2.71,1.59c-1.91,3.67-6.22,8.84-14.27,8.84-10.12,0-16.02-7.49-16.02-16.97,0-11.32,7.81-17.13,15.78-17.13,8.77,0,15.38,7.01,15.38,17.37h-27.81ZM520.31,399.69c-.8-6.45-5.58-11.32-12.03-11.32s-11.32,5.02-12.19,11.32h24.22Z"/>
      <path class="cls-1" d="M533.06,386.07h3.19v4.22c1.19-2.79,3.66-4.94,7.17-4.94.88,0,2.23.16,3.43.8l-1.59,2.87c-.32-.24-.96-.64-2.39-.64-6.54,0-6.61,8.69-6.61,12.75v17.45h-3.19v-32.51Z"/>
      <path class="cls-1" d="M567.65,392.04c-1.12-2.55-3.35-3.67-5.66-3.67-3.67,0-5.5,2.79-5.5,5.18,0,3.19,2.55,4.22,5.74,5.5,3.27,1.28,6.29,2.15,8.37,4.78,1.35,1.67,1.67,3.43,1.67,5.26,0,7.41-5.58,10.36-10.6,10.36-5.42,0-9.88-3.19-11.24-8.61l3.11-.96c1.12,4.3,4.54,6.53,8.13,6.53,4.15,0,7.25-2.95,7.25-7.17,0-3.67-2.31-5.02-7.25-7.01-3.26-1.35-5.66-2.39-7.09-4.3-.72-.96-1.44-2.31-1.44-4.22,0-4.94,3.75-8.37,8.69-8.37,3.82,0,7.01,1.75,8.53,5.26l-2.71,1.43Z"/>
      <path class="cls-1" d="M579.13,375.23c0-1.75,1.27-2.95,2.87-2.95s2.87,1.19,2.87,2.95-1.27,2.95-2.87,2.95-2.87-1.19-2.87-2.95ZM583.59,386.07v32.51h-3.19v-32.51h3.19Z"/>
      <path class="cls-1" d="M627.1,402.4c0,9.64-7.41,17.05-17.05,17.05s-17.05-7.41-17.05-17.05,7.41-17.05,17.05-17.05,17.05,7.41,17.05,17.05ZM623.75,402.4c0-7.89-5.9-14.02-13.7-14.02s-13.7,6.14-13.7,14.02,5.9,14.02,13.7,14.02,13.7-6.13,13.7-14.02ZM617.06,371.17l-8.37,10.2-2.39-1.28,7.33-10.92,3.43,1.99Z"/>
      <path class="cls-1" d="M636.51,386.07h3.19v5.1c1.51-2.71,4.46-5.82,9.96-5.82,5.82,0,8.29,3.43,9,4.54,1.43,2.31,1.59,5.34,1.59,8.21v20.48h-3.19v-20.48c0-2.23-.08-4.7-1.27-6.53-.72-1.2-2.47-3.19-6.37-3.19-4.46,0-6.77,2.39-7.97,4.54-1.44,2.55-1.76,5.58-1.76,8.77v16.89h-3.19v-32.51Z"/>
    </g>
  </g>
</svg>