<?xml version="1.0" encoding="UTF-8"?>
<svg id="Capa_1" data-name="Capa 1" xmlns="http://www.w3.org/2000/svg" viewBox="0 0 629.97 226.52">
  <defs>
    <style>
      .cls-1 {
        fill: #1d1d1b;
      }
    </style>
  </defs>
  <path class="cls-1" d="M0,8.5h23.28c12.37,31.67,24.59,63.13,36.65,94.38,12.06,31.25,24.27,62.71,36.65,94.38L173.65,8.5h9.75l-89.03,218.01h-9.75c-14.27-36.49-28.37-72.83-42.31-109.01C28.36,81.32,14.26,44.99,0,8.5Z"/>
  <path class="cls-1" d="M350.05,29.68c1.64,1.22,1.88,1.4,4.12,3.67,10.16,10.27,18.25,22.28,24.22,36.02,5.98,13.74,8.97,28.36,8.97,43.89s-2.99,30.46-8.97,44.2c-5.97,13.74-14.05,25.69-24.22,35.86-2.29,2.29-1.97,1.84-4.22,3.63-3.5-2.59-7.06-5.18-10.21-8.25.93-1.02.06-.07,1.37-1.52,8.59-9.43,15.36-20.5,20.29-33.19,4.93-12.69,7.39-26.27,7.39-40.74s-2.46-28-7.39-40.58c-4.93-12.58-11.7-23.61-20.29-33.04-1.31-1.44.42.25-.96-1.1,2.64-3.11,6.34-6.24,9.89-8.85M274.11,0c15.73,0,30.47,2.99,44.2,8.97,6.67,2.9,9.04,4.07,14.87,7.99-3.53,2.37-6.59,5.13-9.59,7.96-4.98-3.66-6.97-4.92-12.67-7.61-11.53-5.45-23.8-8.18-36.81-8.18s-25.27,2.73-36.81,8.18c-11.53,5.45-21.6,12.9-30.2,22.33-8.6,9.44-15.36,20.45-20.29,33.04-4.93,12.58-7.39,26.11-7.39,40.58s2.47,28.05,7.39,40.74c4.93,12.69,11.69,23.75,20.29,33.19,8.6,9.44,18.67,16.88,30.2,22.34,11.54,5.45,23.81,8.18,36.81,8.18s25.28-2.74,36.81-8.18c5.74-2.71,7.65-3.92,12.67-7.62,3.17,2.67,6.17,5.35,9.65,7.67-5.83,3.89-8.27,5.09-14.93,7.98-13.73,5.96-28.47,8.97-44.2,8.97s-30.46-2.99-44.2-8.97c-13.74-5.98-25.69-14.05-35.86-24.23-10.17-10.17-18.24-22.13-24.22-35.86-5.98-13.74-8.97-28.47-8.97-44.2s2.99-30.15,8.97-43.89c5.98-13.74,14.05-25.75,24.22-36.02,10.17-10.28,22.13-18.4,35.86-24.38,13.74-5.97,28.47-8.97,44.2-8.97Z"/>
  <path class="cls-1" d="M607.28,42.79c-.42-1.89-1.57-4.3-3.46-7.24-1.89-2.93-4.35-5.71-7.39-8.34-3.04-2.62-6.77-4.93-11.17-6.92-4.4-1.99-9.33-2.99-14.79-2.99s-10.28.94-14.47,2.83c-4.2,1.89-7.71,4.3-10.54,7.24-2.83,2.94-4.98,6.13-6.45,9.6-1.47,3.46-2.2,6.76-2.2,9.91s.47,6.34,1.41,9.59c.94,3.25,3.2,6.92,6.77,11.01,3.56,4.09,8.7,8.81,15.42,14.16,6.71,5.35,15.93,11.69,27.68,19.03,11.53,6.72,20.55,14.47,27.06,23.28,6.5,8.81,10.85,17.88,13.05,27.21,2.2,9.33,2.36,18.56.47,27.68s-5.56,17.25-11.01,24.38c-5.46,7.13-12.48,12.85-21.08,17.14-8.6,4.3-18.46,6.34-29.57,6.13-4.82,0-10.17-.79-16.04-2.36-5.87-1.57-11.8-4.25-17.78-8.02s-11.64-8.7-16.99-14.78c-5.35-6.08-9.81-13.53-13.37-22.34h9.44c0,1.05,1.21,3.62,3.62,7.71,2.41,4.09,5.92,8.39,10.54,12.9,4.61,4.51,10.22,8.6,16.83,12.27,6.61,3.67,14.1,5.61,22.49,5.82,11.11.42,20.4-2.25,27.84-8.02,7.44-5.77,12.43-13.05,14.94-21.86s2.36-18.3-.47-28.47c-2.83-10.17-8.86-19.35-18.09-27.53-6.92-6.29-13.9-11.64-20.92-16.04-7.03-4.4-13.68-8.81-19.98-13.21s-11.95-9.17-16.99-14.31c-5.03-5.14-8.81-11.48-11.33-19.03-2.52-7.13-3.1-14.21-1.73-21.23,1.36-7.02,4.14-13.37,8.34-19.03,4.19-5.66,9.44-10.33,15.73-14,6.29-3.67,13.1-5.82,20.45-6.45,4.61-.21,9.28.05,14,.79,4.72.74,9.17,2.15,13.37,4.25,4.19,2.1,8.02,4.77,11.48,8.02,3.46,3.25,6.24,7.19,8.34,11.8l.31,9.44h-3.78Z"/>
  <path class="cls-1" d="M400,9.13c-13,0-25.27,2.73-36.81,8.18-11.53,5.45-21.6,12.9-30.2,22.33-8.6,9.44-15.36,20.45-20.29,33.04-4.93,12.58-7.39,26.11-7.39,40.58s2.47,28.05,7.39,40.74c4.93,12.69,11.69,23.75,20.29,33.19,8.6,9.44,18.67,16.88,30.2,22.34,11.54,5.45,23.81,8.18,36.81,8.18s25.27-2.73,36.81-8.18c11.54-5.45,21.6-12.9,30.2-22.34,8.6-9.44,15.36-20.5,20.29-33.19,4.93-12.69,7.39-26.27,7.39-40.74s-2.46-28-7.39-40.58c-4.93-12.58-11.69-23.6-20.29-33.04-8.6-9.44-18.66-16.88-30.2-22.33-11.53-5.45-23.8-8.18-36.81-8.18M400,0c15.73,0,30.46,2.99,44.2,8.97,13.74,5.98,25.69,14.1,35.86,24.38,10.17,10.28,18.25,22.28,24.22,36.02,5.98,13.74,8.97,28.36,8.97,43.89s-2.99,30.46-8.97,44.2c-5.97,13.74-14.05,25.69-24.22,35.86-10.17,10.17-22.13,18.25-35.86,24.23-13.74,5.97-28.47,8.97-44.2,8.97s-30.46-2.99-44.2-8.97c-13.74-5.98-25.69-14.05-35.86-24.23-10.17-10.17-18.24-22.13-24.22-35.86-5.98-13.74-8.97-28.47-8.97-44.2s2.99-30.15,8.97-43.89c5.98-13.74,14.05-25.75,24.22-36.02,10.17-10.28,22.13-18.4,35.86-24.38,13.74-5.97,28.47-8.97,44.2-8.97Z"/>
</svg>